<svg width="25" height="24" viewBox="0 0 25 24" fill="none" xmlns="http://www.w3.org/2000/svg">
<path d="M1 22C0.447715 22 0 22.4477 0 23C0 23.5523 0.447715 24 1 24V22ZM18.5 24C19.0523 24 19.5 23.5523 19.5 23C19.5 22.4477 19.0523 22 18.5 22V24ZM18.5 9.25V8.25C17.9477 8.25 17.5 8.69772 17.5 9.25H18.5ZM18.5 15.5H17.5C17.5 16.0523 17.9477 16.5 18.5 16.5V15.5ZM15.6444 2.19721C15.8914 1.70324 15.6912 1.10256 15.1972 0.855573C14.7032 0.608584 14.1026 0.808808 13.8556 1.30279L15.6444 2.19721ZM12.6056 3.80279C12.3586 4.29676 12.5588 4.89744 13.0528 5.14443C13.5468 5.39142 14.1474 5.19119 14.3944 4.69721L12.6056 3.80279ZM11.8944 2.19721C12.1414 1.70324 11.9412 1.10256 11.4472 0.855573C10.9532 0.608584 10.3526 0.808808 10.1056 1.30279L11.8944 2.19721ZM8.85557 3.80279C8.60858 4.29676 8.80881 4.89744 9.30279 5.14443C9.79677 5.39142 10.3974 5.19119 10.6444 4.69721L8.85557 3.80279ZM8.14443 2.19721C8.39142 1.70324 8.19119 1.10256 7.69721 0.855573C7.20324 0.608584 6.60256 0.808808 6.35557 1.30279L8.14443 2.19721ZM5.10557 3.80279C4.85858 4.29676 5.05881 4.89744 5.55279 5.14443C6.04676 5.39142 6.64744 5.19119 6.89443 4.69721L5.10557 3.80279ZM1 24H18.5V22H1V24ZM18.5 10.25H20.375V8.25H18.5V10.25ZM20.375 14.5H18.5V16.5H20.375V14.5ZM19.5 15.5V9.25H17.5V15.5H19.5ZM22.5 12.375C22.5 13.5486 21.5486 14.5 20.375 14.5V16.5C22.6532 16.5 24.5 14.6532 24.5 12.375H22.5ZM20.375 10.25C21.5486 10.25 22.5 11.2014 22.5 12.375H24.5C24.5 10.0968 22.6532 8.25 20.375 8.25V10.25ZM17.5 9.15387V14.25H19.5V9.15387H17.5ZM2 14.25V9.15387H0V14.25H2ZM2.15356 9H17.3459V7H2.15356V9ZM2 9.15387C2 9.06856 2.06894 9 2.15356 9V7C0.963684 7 0 7.96468 0 9.15387H2ZM9.75 22C5.46979 22 2 18.5302 2 14.25H0C0 19.6348 4.36523 24 9.75 24V22ZM17.5 14.25C17.5 18.5302 14.0302 22 9.75 22V24C15.1348 24 19.5 19.6348 19.5 14.25H17.5ZM19.5 9.15387C19.5 7.96404 18.5351 7 17.3459 7V9C17.4311 9 17.5 9.06919 17.5 9.15387H19.5ZM13.8556 1.30279L12.6056 3.80279L14.3944 4.69721L15.6444 2.19721L13.8556 1.30279ZM10.1056 1.30279L8.85557 3.80279L10.6444 4.69721L11.8944 2.19721L10.1056 1.30279ZM6.35557 1.30279L5.10557 3.80279L6.89443 4.69721L8.14443 2.19721L6.35557 1.30279Z" fill="white"/>
</svg>
