<svg width="20" height="20" viewBox="0 0 20 20" fill="none" xmlns="http://www.w3.org/2000/svg">
<path d="M18.5624 1.32476L19.5602 1.25825C19.5269 0.758373 19.1288 0.360299 18.6289 0.326973L18.5624 1.32476ZM3.53638 16.3507L2.67888 16.8652C2.76333 17.006 2.88113 17.1238 3.02188 17.2082L3.53638 16.3507ZM0.542893 17.9294C0.152369 18.3199 0.152369 18.953 0.542893 19.3436C0.933417 19.7341 1.56658 19.7341 1.95711 19.3436L0.542893 17.9294ZM9.02817 12.2725C9.4187 11.882 9.4187 11.2488 9.02817 10.8583C8.63765 10.4678 8.00449 10.4678 7.61396 10.8583L9.02817 12.2725ZM17.5646 1.39127C17.9969 7.87582 16.4632 12.6162 13.9883 15.0912C12.7664 16.3131 11.305 16.9996 9.67181 17.1068C8.02722 17.2149 6.12846 16.7398 4.05087 15.4933L3.02188 17.2082C5.36371 18.6133 7.66339 19.2431 9.80292 19.1025C11.9539 18.9612 13.8622 18.0457 15.4025 16.5054C18.4518 13.4561 20.0117 8.03186 19.5602 1.25825L17.5646 1.39127ZM4.39387 15.8363C3.14731 13.7587 2.67223 11.8599 2.78027 10.2153C2.88755 8.58211 3.57403 7.1207 4.79591 5.89883C7.27087 3.42388 12.0113 1.89022 18.4959 2.32254L18.6289 0.326973C11.8553 -0.124618 6.43102 1.4353 3.3817 4.48461C1.84143 6.02487 0.925869 7.93326 0.784567 10.0842C0.644014 12.2237 1.27378 14.5234 2.67888 16.8652L4.39387 15.8363ZM1.95711 19.3436L9.02817 12.2725L7.61396 10.8583L0.542893 17.9294L1.95711 19.3436Z" fill="white"/>
</svg>
