<svg width="21" height="26" viewBox="0 0 21 26" fill="none" xmlns="http://www.w3.org/2000/svg">
<path d="M3.69995 16.75H16.9857M3.48571 14.25H17.2M17.6568 8.92087L16.6565 20.5917C16.5458 21.8825 16.4905 22.5278 16.2036 23.0161C15.951 23.4462 15.576 23.7909 15.1259 24.0059C14.6148 24.25 13.9671 24.25 12.6715 24.25H8.01513C6.71959 24.25 6.07138 24.25 5.5603 24.0059C5.11023 23.7909 4.73498 23.4462 4.48236 23.0161C4.1955 22.5278 4.14017 21.8825 4.02953 20.5917L3.02917 8.92087C2.9646 8.16753 2.93235 7.79077 3.05915 7.50012C3.17056 7.24476 3.36409 7.03397 3.60901 6.90116C3.88777 6.75 4.26587 6.75 5.02197 6.75H15.6644C16.4205 6.75 16.7988 6.75 17.0776 6.90116C17.3225 7.03397 17.5155 7.24476 17.6269 7.50012C17.7538 7.79077 17.7214 8.16753 17.6568 8.92087ZM16.9021 6.75H3.78418C2.65716 6.75 2.09368 6.74996 1.76635 6.5141C1.47775 6.30613 1.29157 5.98509 1.25419 5.63132C1.21181 5.23011 1.49162 4.74088 2.05078 3.76236C2.4685 3.03135 2.67736 2.66585 2.97048 2.39957C3.23253 2.16151 3.54208 1.9818 3.87878 1.87239C4.2554 1.75 4.67624 1.75 5.51819 1.75H15.1685C16.0104 1.75 16.4314 1.75 16.808 1.87239C17.1447 1.9818 17.454 2.16151 17.7161 2.39957C18.0092 2.66585 18.218 3.03135 18.6358 3.76236C19.1949 4.74088 19.4746 5.23011 19.4322 5.63132C19.3948 5.98509 19.2089 6.30613 18.9203 6.5141C18.593 6.74996 18.0291 6.75 16.9021 6.75Z" stroke="white" stroke-width="2" stroke-linecap="round" stroke-linejoin="round"/>
</svg>
