<svg width="54" height="54" viewBox="0 0 54 54" fill="none" xmlns="http://www.w3.org/2000/svg">
<path d="M21.6424 1.21917C25.0728 -0.20174 28.9272 -0.201738 32.3576 1.21918L41.4414 4.98184C44.8718 6.40275 47.5973 9.12818 49.0182 12.5586L52.7808 21.6424C54.2017 25.0728 54.2017 28.9272 52.7808 32.3576L49.0182 41.4414C47.5972 44.8718 44.8718 47.5973 41.4414 49.0182L32.3576 52.7808C28.9272 54.2017 25.0728 54.2017 21.6424 52.7808L12.5586 49.0182C9.12818 47.5972 6.40275 44.8718 4.98183 41.4414L1.21917 32.3576C-0.201741 28.9272 -0.201738 25.0728 1.21918 21.6424L4.98183 12.5586C6.40275 9.12818 9.12819 6.40275 12.5586 4.98183L21.6424 1.21917Z" fill="#FF6B00"/>
</svg>
