<svg width="26" height="16" viewBox="0 0 26 16" fill="none" xmlns="http://www.w3.org/2000/svg">
<path d="M1.75 0.75C1.19772 0.75 0.75 1.19772 0.75 1.75C0.75 2.30228 1.19772 2.75 1.75 2.75V0.75ZM9.83228 2.72107L8.97478 3.23557L9.83228 2.72107ZM16.1671 13.2791L15.3096 13.7935L15.3096 13.7935L16.1671 13.2791ZM24.2504 15.25C24.8027 15.25 25.2504 14.8023 25.2504 14.25C25.2504 13.6977 24.8027 13.25 24.2504 13.25V15.25ZM16.6327 13.9387L15.9723 14.6896L16.6327 13.9387ZM17.0771 14.1908L17.3814 13.2382L17.0771 14.1908ZM8.9221 1.80925L9.22631 0.856642L8.9221 1.80925ZM9.36719 2.06128L8.70685 2.81225L9.36719 2.06128ZM16.75 0.75C16.1977 0.75 15.75 1.19772 15.75 1.75C15.75 2.30228 16.1977 2.75 16.75 2.75V0.75ZM24.25 2.75C24.8023 2.75 25.25 2.30229 25.25 1.75C25.25 1.19772 24.8023 0.750001 24.25 0.750001V2.75ZM1.75 2.75H8.11762V0.75H1.75V2.75ZM8.97478 3.23557L15.3096 13.7935L17.0246 12.7646L10.6898 2.20657L8.97478 3.23557ZM17.8828 15.25H24.2504V13.25H17.8828V15.25ZM15.3096 13.7935C15.4894 14.0932 15.6818 14.4342 15.9723 14.6896L17.293 13.1877C17.3044 13.1977 17.2946 13.1939 17.2499 13.1287C17.199 13.0542 17.1362 12.9506 17.0246 12.7646L15.3096 13.7935ZM17.8828 13.25C17.665 13.25 17.5438 13.2496 17.453 13.2443C17.3734 13.2397 17.3657 13.2332 17.3814 13.2382L16.7729 15.1434C17.1421 15.2613 17.5363 15.25 17.8828 15.25V13.25ZM15.9723 14.6896C16.2041 14.8934 16.4759 15.0485 16.7729 15.1434L17.3814 13.2382C17.3501 13.2282 17.3201 13.2115 17.293 13.1877L15.9723 14.6896ZM8.11762 2.75C8.33541 2.75 8.45626 2.75039 8.54661 2.75569C8.62556 2.76032 8.63313 2.76672 8.61788 2.76185L9.22631 0.856642C8.85722 0.738773 8.46458 0.75 8.11762 0.75V2.75ZM10.6898 2.20657C10.5111 1.9088 10.3184 1.56611 10.0275 1.31031L8.70685 2.81225C8.69483 2.80168 8.70433 2.805 8.74908 2.87054C8.80017 2.94537 8.86281 3.04895 8.97478 3.23557L10.6898 2.20657ZM8.61788 2.76185C8.65062 2.7723 8.6809 2.78943 8.70685 2.81225L10.0275 1.31031C9.79463 1.10553 9.52191 0.951042 9.22631 0.856642L8.61788 2.76185ZM16.75 2.75L24.25 2.75V0.750001L16.75 0.75V2.75Z" fill="white"/>
</svg>
