<svg width="101" height="40" viewBox="0 0 101 40" fill="none" xmlns="http://www.w3.org/2000/svg">
<path d="M10.692 4.526V6.92H6.93V17H4.122V6.92H0.36V4.526H10.692ZM12.3166 17V3.464L14.9986 3.032V7.568C15.1786 7.508 15.4066 7.454 15.6826 7.406C15.9706 7.346 16.2466 7.316 16.5106 7.316C17.2786 7.316 17.9146 7.424 18.4186 7.64C18.9346 7.844 19.3426 8.138 19.6426 8.522C19.9546 8.906 20.1706 9.362 20.2906 9.89C20.4226 10.418 20.4886 11.006 20.4886 11.654V17H17.8066V11.978C17.8066 11.114 17.6926 10.502 17.4646 10.142C17.2486 9.782 16.8406 9.602 16.2406 9.602C16.0006 9.602 15.7726 9.626 15.5566 9.674C15.3526 9.71 15.1666 9.752 14.9986 9.8V17H12.3166ZM22.4663 12.338C22.4663 11.498 22.5923 10.766 22.8442 10.142C23.1083 9.506 23.4503 8.978 23.8703 8.558C24.2903 8.138 24.7703 7.82 25.3103 7.604C25.8623 7.388 26.4263 7.28 27.0023 7.28C28.3463 7.28 29.4083 7.694 30.1883 8.522C30.9683 9.338 31.3583 10.544 31.3583 12.14C31.3583 12.296 31.3523 12.47 31.3403 12.662C31.3283 12.842 31.3163 13.004 31.3043 13.148H25.2203C25.2803 13.7 25.5383 14.138 25.9943 14.462C26.4503 14.786 27.0623 14.948 27.8303 14.948C28.3223 14.948 28.8023 14.906 29.2703 14.822C29.7503 14.726 30.1403 14.612 30.4403 14.48L30.8003 16.658C30.6563 16.73 30.4643 16.802 30.2243 16.874C29.9843 16.946 29.7143 17.006 29.4143 17.054C29.1263 17.114 28.8143 17.162 28.4783 17.198C28.1423 17.234 27.8063 17.252 27.4703 17.252C26.6183 17.252 25.8743 17.126 25.2383 16.874C24.6143 16.622 24.0923 16.28 23.6723 15.848C23.2643 15.404 22.9583 14.882 22.7543 14.282C22.5623 13.682 22.4663 13.034 22.4663 12.338ZM28.7663 11.312C28.7543 11.084 28.7123 10.862 28.6403 10.646C28.5803 10.43 28.4783 10.238 28.3343 10.07C28.2023 9.902 28.0283 9.764 27.8123 9.656C27.6083 9.548 27.3503 9.494 27.0383 9.494C26.7383 9.494 26.4803 9.548 26.2643 9.656C26.0483 9.752 25.8683 9.884 25.7243 10.052C25.5803 10.22 25.4663 10.418 25.3823 10.646C25.3103 10.862 25.2563 11.084 25.2203 11.312H28.7663ZM5.598 37.162C4.914 37.162 4.23 37.138 3.546 37.09C2.874 37.054 2.172 36.958 1.44 36.802V24.706C2.016 24.598 2.646 24.52 3.33 24.472C4.014 24.412 4.65 24.382 5.238 24.382C6.03 24.382 6.756 24.442 7.416 24.562C8.088 24.67 8.664 24.862 9.144 25.138C9.624 25.414 9.996 25.78 10.26 26.236C10.536 26.68 10.674 27.232 10.674 27.892C10.674 28.888 10.194 29.674 9.234 30.25C10.026 30.55 10.566 30.958 10.854 31.474C11.142 31.99 11.286 32.572 11.286 33.22C11.286 34.528 10.806 35.512 9.846 36.172C8.898 36.832 7.482 37.162 5.598 37.162ZM4.176 31.564V34.786C4.38 34.81 4.602 34.828 4.842 34.84C5.082 34.852 5.346 34.858 5.634 34.858C6.474 34.858 7.152 34.738 7.668 34.498C8.184 34.258 8.442 33.814 8.442 33.166C8.442 32.59 8.226 32.182 7.794 31.942C7.362 31.69 6.744 31.564 5.94 31.564H4.176ZM4.176 29.422H5.544C6.408 29.422 7.026 29.314 7.398 29.098C7.77 28.87 7.956 28.51 7.956 28.018C7.956 27.514 7.764 27.16 7.38 26.956C6.996 26.752 6.432 26.65 5.688 26.65C5.448 26.65 5.19 26.656 4.914 26.668C4.638 26.668 4.392 26.68 4.176 26.704V29.422ZM19.0598 29.908C18.8198 29.848 18.5378 29.788 18.2138 29.728C17.8898 29.656 17.5418 29.62 17.1698 29.62C17.0018 29.62 16.7978 29.638 16.5578 29.674C16.3298 29.698 16.1558 29.728 16.0358 29.764V37H13.3538V28.036C13.8338 27.868 14.3978 27.712 15.0458 27.568C15.7058 27.412 16.4378 27.334 17.2418 27.334C17.3858 27.334 17.5598 27.346 17.7638 27.37C17.9678 27.382 18.1718 27.406 18.3758 27.442C18.5798 27.466 18.7838 27.502 18.9878 27.55C19.1918 27.586 19.3658 27.634 19.5098 27.694L19.0598 29.908ZM20.3217 32.338C20.3217 31.498 20.4477 30.766 20.6997 30.142C20.9637 29.506 21.3057 28.978 21.7257 28.558C22.1457 28.138 22.6257 27.82 23.1657 27.604C23.7177 27.388 24.2817 27.28 24.8577 27.28C26.2017 27.28 27.2637 27.694 28.0437 28.522C28.8237 29.338 29.2137 30.544 29.2137 32.14C29.2137 32.296 29.2077 32.47 29.1957 32.662C29.1837 32.842 29.1717 33.004 29.1597 33.148H23.0757C23.1357 33.7 23.3937 34.138 23.8497 34.462C24.3057 34.786 24.9177 34.948 25.6857 34.948C26.1777 34.948 26.6577 34.906 27.1257 34.822C27.6057 34.726 27.9957 34.612 28.2957 34.48L28.6557 36.658C28.5117 36.73 28.3197 36.802 28.0797 36.874C27.8397 36.946 27.5697 37.006 27.2697 37.054C26.9817 37.114 26.6697 37.162 26.3337 37.198C25.9977 37.234 25.6617 37.252 25.3257 37.252C24.4737 37.252 23.7297 37.126 23.0937 36.874C22.4697 36.622 21.9477 36.28 21.5277 35.848C21.1197 35.404 20.8137 34.882 20.6097 34.282C20.4177 33.682 20.3217 33.034 20.3217 32.338ZM26.6217 31.312C26.6097 31.084 26.5677 30.862 26.4957 30.646C26.4357 30.43 26.3337 30.238 26.1897 30.07C26.0577 29.902 25.8837 29.764 25.6677 29.656C25.4637 29.548 25.2057 29.494 24.8937 29.494C24.5937 29.494 24.3357 29.548 24.1197 29.656C23.9037 29.752 23.7237 29.884 23.5797 30.052C23.4357 30.22 23.3217 30.418 23.2377 30.646C23.1657 30.862 23.1117 31.084 23.0757 31.312H26.6217ZM34.9014 35.128C35.1654 35.128 35.4174 35.122 35.6574 35.11C35.8974 35.098 36.0894 35.08 36.2334 35.056V33.022C36.1254 32.998 35.9634 32.974 35.7474 32.95C35.5314 32.926 35.3334 32.914 35.1534 32.914C34.9014 32.914 34.6614 32.932 34.4334 32.968C34.2174 32.992 34.0254 33.046 33.8574 33.13C33.6894 33.214 33.5574 33.328 33.4614 33.472C33.3654 33.616 33.3174 33.796 33.3174 34.012C33.3174 34.432 33.4554 34.726 33.7314 34.894C34.0194 35.05 34.4094 35.128 34.9014 35.128ZM34.6854 27.28C35.4774 27.28 36.1374 27.37 36.6654 27.55C37.1934 27.73 37.6134 27.988 37.9254 28.324C38.2494 28.66 38.4774 29.068 38.6094 29.548C38.7414 30.028 38.8074 30.562 38.8074 31.15V36.73C38.4234 36.814 37.8894 36.91 37.2054 37.018C36.5214 37.138 35.6934 37.198 34.7214 37.198C34.1094 37.198 33.5514 37.144 33.0474 37.036C32.5554 36.928 32.1294 36.754 31.7694 36.514C31.4094 36.262 31.1334 35.938 30.9414 35.542C30.7494 35.146 30.6534 34.66 30.6534 34.084C30.6534 33.532 30.7614 33.064 30.9774 32.68C31.2054 32.296 31.5054 31.99 31.8774 31.762C32.2494 31.534 32.6754 31.372 33.1554 31.276C33.6354 31.168 34.1334 31.114 34.6494 31.114C34.9974 31.114 35.3034 31.132 35.5674 31.168C35.8434 31.192 36.0654 31.228 36.2334 31.276V31.024C36.2334 30.568 36.0954 30.202 35.8194 29.926C35.5434 29.65 35.0634 29.512 34.3794 29.512C33.9234 29.512 33.4734 29.548 33.0294 29.62C32.5854 29.68 32.2014 29.77 31.8774 29.89L31.5354 27.73C31.6914 27.682 31.8834 27.634 32.1114 27.586C32.3514 27.526 32.6094 27.478 32.8854 27.442C33.1614 27.394 33.4494 27.358 33.7494 27.334C34.0614 27.298 34.3734 27.28 34.6854 27.28ZM43.9147 30.952C44.1787 30.664 44.4487 30.364 44.7247 30.052C45.0127 29.74 45.2887 29.434 45.5527 29.134C45.8167 28.822 46.0627 28.528 46.2907 28.252C46.5307 27.976 46.7347 27.736 46.9027 27.532H50.0887C49.4527 28.264 48.8287 28.966 48.2167 29.638C47.6167 30.298 46.9567 30.982 46.2367 31.69C46.5967 32.014 46.9687 32.404 47.3527 32.86C47.7367 33.304 48.1087 33.766 48.4687 34.246C48.8287 34.726 49.1587 35.206 49.4587 35.686C49.7587 36.166 50.0107 36.604 50.2147 37H47.1367C46.9447 36.688 46.7227 36.346 46.4707 35.974C46.2307 35.59 45.9727 35.212 45.6967 34.84C45.4207 34.456 45.1267 34.09 44.8147 33.742C44.5147 33.394 44.2147 33.1 43.9147 32.86V37H41.2327V23.464L43.9147 23.032V30.952ZM53.2921 32.194C53.2921 33.022 53.4781 33.688 53.8501 34.192C54.2221 34.696 54.7741 34.948 55.5061 34.948C55.7461 34.948 55.9681 34.942 56.1721 34.93C56.3761 34.906 56.5441 34.882 56.6761 34.858V29.98C56.5081 29.872 56.2861 29.782 56.0101 29.71C55.7461 29.638 55.4761 29.602 55.2001 29.602C53.9281 29.602 53.2921 30.466 53.2921 32.194ZM59.3581 36.694C59.1181 36.766 58.8421 36.838 58.5301 36.91C58.2181 36.97 57.8881 37.024 57.5401 37.072C57.2041 37.12 56.8561 37.156 56.4961 37.18C56.1481 37.216 55.8121 37.234 55.4881 37.234C54.7081 37.234 54.0121 37.12 53.4001 36.892C52.7881 36.664 52.2721 36.34 51.8521 35.92C51.4321 35.488 51.1081 34.972 50.8801 34.372C50.6641 33.76 50.5561 33.076 50.5561 32.32C50.5561 31.552 50.6521 30.862 50.8441 30.25C51.0361 29.626 51.3121 29.098 51.6721 28.666C52.0321 28.234 52.4701 27.904 52.9861 27.676C53.5141 27.448 54.1141 27.334 54.7861 27.334C55.1581 27.334 55.4881 27.37 55.7761 27.442C56.0761 27.514 56.3761 27.616 56.6761 27.748V23.464L59.3581 23.032V36.694ZM65.4874 35.128C65.7514 35.128 66.0034 35.122 66.2434 35.11C66.4834 35.098 66.6754 35.08 66.8194 35.056V33.022C66.7114 32.998 66.5494 32.974 66.3334 32.95C66.1174 32.926 65.9194 32.914 65.7394 32.914C65.4874 32.914 65.2474 32.932 65.0194 32.968C64.8034 32.992 64.6114 33.046 64.4434 33.13C64.2754 33.214 64.1434 33.328 64.0474 33.472C63.9514 33.616 63.9034 33.796 63.9034 34.012C63.9034 34.432 64.0414 34.726 64.3174 34.894C64.6054 35.05 64.9954 35.128 65.4874 35.128ZM65.2714 27.28C66.0634 27.28 66.7234 27.37 67.2514 27.55C67.7794 27.73 68.1994 27.988 68.5114 28.324C68.8354 28.66 69.0634 29.068 69.1954 29.548C69.3274 30.028 69.3934 30.562 69.3934 31.15V36.73C69.0094 36.814 68.4754 36.91 67.7914 37.018C67.1074 37.138 66.2794 37.198 65.3074 37.198C64.6954 37.198 64.1374 37.144 63.6334 37.036C63.1414 36.928 62.7154 36.754 62.3554 36.514C61.9954 36.262 61.7194 35.938 61.5274 35.542C61.3354 35.146 61.2394 34.66 61.2394 34.084C61.2394 33.532 61.3474 33.064 61.5634 32.68C61.7914 32.296 62.0914 31.99 62.4634 31.762C62.8354 31.534 63.2614 31.372 63.7414 31.276C64.2214 31.168 64.7194 31.114 65.2354 31.114C65.5834 31.114 65.8894 31.132 66.1534 31.168C66.4294 31.192 66.6514 31.228 66.8194 31.276V31.024C66.8194 30.568 66.6814 30.202 66.4054 29.926C66.1294 29.65 65.6494 29.512 64.9654 29.512C64.5094 29.512 64.0594 29.548 63.6154 29.62C63.1714 29.68 62.7874 29.77 62.4634 29.89L62.1214 27.73C62.2774 27.682 62.4694 27.634 62.6974 27.586C62.9374 27.526 63.1954 27.478 63.4714 27.442C63.7474 27.394 64.0354 27.358 64.3354 27.334C64.6474 27.298 64.9594 27.28 65.2714 27.28ZM71.8186 27.856C72.2746 27.724 72.8626 27.604 73.5826 27.496C74.3026 27.376 75.0586 27.316 75.8506 27.316C76.6546 27.316 77.3206 27.424 77.8486 27.64C78.3886 27.844 78.8146 28.138 79.1266 28.522C79.4386 28.906 79.6606 29.362 79.7926 29.89C79.9246 30.418 79.9906 31.006 79.9906 31.654V37H77.3086V31.978C77.3086 31.114 77.1946 30.502 76.9666 30.142C76.7386 29.782 76.3126 29.602 75.6886 29.602C75.4966 29.602 75.2926 29.614 75.0766 29.638C74.8606 29.65 74.6686 29.668 74.5006 29.692V37H71.8186V27.856ZM81.9682 32.266C81.9682 31.582 82.0762 30.94 82.2922 30.34C82.5202 29.728 82.8442 29.2 83.2642 28.756C83.6842 28.3 84.1942 27.94 84.7942 27.676C85.3942 27.412 86.0782 27.28 86.8462 27.28C87.3502 27.28 87.8122 27.328 88.2322 27.424C88.6522 27.508 89.0602 27.634 89.4562 27.802L88.8982 29.944C88.6462 29.848 88.3702 29.764 88.0702 29.692C87.7702 29.62 87.4342 29.584 87.0622 29.584C86.2702 29.584 85.6762 29.83 85.2802 30.322C84.8962 30.814 84.7042 31.462 84.7042 32.266C84.7042 33.118 84.8842 33.778 85.2442 34.246C85.6162 34.714 86.2582 34.948 87.1702 34.948C87.4942 34.948 87.8422 34.918 88.2142 34.858C88.5862 34.798 88.9282 34.702 89.2402 34.57L89.6182 36.766C89.3062 36.898 88.9162 37.012 88.4482 37.108C87.9802 37.204 87.4642 37.252 86.9002 37.252C86.0362 37.252 85.2922 37.126 84.6682 36.874C84.0442 36.61 83.5282 36.256 83.1202 35.812C82.7242 35.368 82.4302 34.846 82.2382 34.246C82.0582 33.634 81.9682 32.974 81.9682 32.266ZM90.5112 32.338C90.5112 31.498 90.6372 30.766 90.8892 30.142C91.1532 29.506 91.4952 28.978 91.9152 28.558C92.3352 28.138 92.8152 27.82 93.3552 27.604C93.9072 27.388 94.4712 27.28 95.0472 27.28C96.3912 27.28 97.4532 27.694 98.2332 28.522C99.0132 29.338 99.4032 30.544 99.4032 32.14C99.4032 32.296 99.3972 32.47 99.3852 32.662C99.3732 32.842 99.3612 33.004 99.3492 33.148H93.2652C93.3252 33.7 93.5832 34.138 94.0392 34.462C94.4952 34.786 95.1072 34.948 95.8752 34.948C96.3672 34.948 96.8472 34.906 97.3152 34.822C97.7952 34.726 98.1852 34.612 98.4852 34.48L98.8452 36.658C98.7012 36.73 98.5092 36.802 98.2692 36.874C98.0292 36.946 97.7592 37.006 97.4592 37.054C97.1712 37.114 96.8592 37.162 96.5232 37.198C96.1872 37.234 95.8512 37.252 95.5152 37.252C94.6632 37.252 93.9192 37.126 93.2832 36.874C92.6592 36.622 92.1372 36.28 91.7172 35.848C91.3092 35.404 91.0032 34.882 90.7992 34.282C90.6072 33.682 90.5112 33.034 90.5112 32.338ZM96.8112 31.312C96.7992 31.084 96.7572 30.862 96.6852 30.646C96.6252 30.43 96.5232 30.238 96.3792 30.07C96.2472 29.902 96.0732 29.764 95.8572 29.656C95.6532 29.548 95.3952 29.494 95.0832 29.494C94.7832 29.494 94.5252 29.548 94.3092 29.656C94.0932 29.752 93.9132 29.884 93.7692 30.052C93.6252 30.22 93.5112 30.418 93.4272 30.646C93.3552 30.862 93.3012 31.084 93.2652 31.312H96.8112Z" fill="white"/>
<path d="M41 12C40.4477 12 40 12.4477 40 13C40 13.5523 40.4477 14 41 14L41 12ZM49.6667 13C49.6667 15.9455 52.0545 18.3333 55 18.3333C57.9455 18.3333 60.3333 15.9455 60.3333 13C60.3333 10.0545 57.9455 7.66667 55 7.66667C52.0545 7.66667 49.6667 10.0545 49.6667 13ZM41 14L55 14L55 12L41 12L41 14Z" fill="white"/>
</svg>
